<svg width="37" height="45" viewBox="0 0 37 45" fill="none" xmlns="http://www.w3.org/2000/svg">
<path d="M0.642489 44V39.6364H2.19789C2.53596 39.6364 2.8165 39.6946 3.03951 39.8111C3.26394 39.9276 3.43155 40.0888 3.54235 40.2947C3.65314 40.4993 3.70854 40.7358 3.70854 41.0043C3.70854 41.2713 3.65243 41.5064 3.54022 41.7095C3.42942 41.9112 3.26181 42.0682 3.03738 42.1804C2.81436 42.2926 2.53382 42.3487 2.19576 42.3487H1.01749V41.782H2.1361C2.34917 41.782 2.52246 41.7514 2.65598 41.6903C2.79093 41.6293 2.88965 41.5405 2.95215 41.424C3.01465 41.3075 3.0459 41.1676 3.0459 41.0043C3.0459 40.8395 3.01394 40.6967 2.95002 40.576C2.88752 40.4553 2.7888 40.3629 2.65385 40.299C2.52033 40.2337 2.3449 40.201 2.12757 40.201H1.30087V44H0.642489ZM2.79661 42.0312L3.87473 44H3.12473L2.06792 42.0312H2.79661ZM5.82804 44.0661C5.50559 44.0661 5.22789 43.9972 4.99494 43.8594C4.76341 43.7202 4.58443 43.5249 4.45801 43.2734C4.33301 43.0206 4.27051 42.7244 4.27051 42.3849C4.27051 42.0497 4.33301 41.7543 4.45801 41.4986C4.58443 41.2429 4.76056 41.0433 4.98642 40.8999C5.21369 40.7564 5.47931 40.6847 5.78329 40.6847C5.96795 40.6847 6.14693 40.7152 6.32022 40.7763C6.49352 40.8374 6.64906 40.9332 6.78684 41.0639C6.92463 41.1946 7.03329 41.3643 7.11284 41.5732C7.19238 41.7805 7.23216 42.0327 7.23216 42.3295V42.5554H4.63059V42.0781H6.60787C6.60787 41.9105 6.57377 41.7621 6.50559 41.6328C6.43741 41.5021 6.34153 41.3991 6.21795 41.3239C6.09579 41.2486 5.95233 41.2109 5.78755 41.2109C5.60858 41.2109 5.45233 41.255 5.3188 41.343C5.1867 41.4297 5.08443 41.5433 5.01199 41.6839C4.94096 41.8232 4.90545 41.9744 4.90545 42.1378V42.5107C4.90545 42.7294 4.9438 42.9155 5.02051 43.0689C5.09863 43.2223 5.2073 43.3395 5.3465 43.4205C5.48571 43.5 5.64835 43.5398 5.83443 43.5398C5.95517 43.5398 6.06525 43.5227 6.16468 43.4886C6.26412 43.4531 6.35005 43.4006 6.4225 43.331C6.49494 43.2614 6.55034 43.1754 6.58869 43.0732L7.19167 43.1818C7.14338 43.3594 7.05673 43.5149 6.93173 43.6484C6.80815 43.7805 6.65261 43.8835 6.46511 43.9574C6.27903 44.0298 6.06667 44.0661 5.82804 44.0661ZM9.46671 40.7273V41.2386H7.67907V40.7273H9.46671ZM8.15847 39.9432H8.79554V43.0391C8.79554 43.1626 8.81401 43.2557 8.85094 43.3182C8.88787 43.3793 8.93546 43.4212 8.9937 43.4439C9.05336 43.4652 9.11799 43.4759 9.18759 43.4759C9.23873 43.4759 9.28347 43.4723 9.32182 43.4652C9.36017 43.4581 9.39 43.4524 9.41131 43.4482L9.52637 43.9744C9.48944 43.9886 9.43688 44.0028 9.3687 44.017C9.30051 44.0327 9.21529 44.0412 9.11301 44.0426C8.9454 44.0455 8.78915 44.0156 8.64426 43.9531C8.49938 43.8906 8.38219 43.794 8.2927 43.6634C8.20321 43.5327 8.15847 43.3686 8.15847 43.1712V39.9432ZM12.2446 42.6428V40.7273H12.8838V44H12.2574V43.4332H12.2233C12.148 43.608 12.0273 43.7536 11.8611 43.87C11.6963 43.9851 11.491 44.0426 11.2453 44.0426C11.0351 44.0426 10.849 43.9964 10.6871 43.9041C10.5265 43.8104 10.4001 43.6719 10.3078 43.4886C10.2169 43.3054 10.1714 43.0788 10.1714 42.8089V40.7273H10.8085V42.7322C10.8085 42.9553 10.8703 43.1328 10.9939 43.2649C11.1175 43.397 11.278 43.4631 11.4754 43.4631C11.5947 43.4631 11.7133 43.4332 11.8312 43.3736C11.9506 43.3139 12.0493 43.2237 12.1274 43.103C12.2069 42.9822 12.246 42.8288 12.2446 42.6428ZM13.7398 44V40.7273H14.3556V41.2472H14.3896C14.4493 41.071 14.5544 40.9325 14.705 40.8317C14.857 40.7294 15.0289 40.6783 15.2206 40.6783C15.2604 40.6783 15.3073 40.6797 15.3612 40.6825C15.4166 40.6854 15.46 40.6889 15.4912 40.6932V41.3026C15.4656 41.2955 15.4202 41.2876 15.3548 41.2791C15.2895 41.2692 15.2242 41.2642 15.1588 41.2642C15.0083 41.2642 14.874 41.2962 14.7561 41.3601C14.6396 41.4226 14.5473 41.5099 14.4791 41.6222C14.411 41.733 14.3769 41.8594 14.3769 42.0014V44H13.7398ZM16.6796 42.0568V44H16.0425V40.7273H16.654V41.2599H16.6945C16.7698 41.0866 16.8877 40.9474 17.0482 40.8423C17.2101 40.7372 17.414 40.6847 17.6597 40.6847C17.8827 40.6847 18.078 40.7315 18.2456 40.8253C18.4133 40.9176 18.5432 41.0554 18.6356 41.2386C18.7279 41.4219 18.7741 41.6484 18.7741 41.9183V44H18.137V41.995C18.137 41.7578 18.0752 41.5724 17.9516 41.4389C17.828 41.304 17.6583 41.2365 17.4424 41.2365C17.2947 41.2365 17.1633 41.2685 17.0482 41.3324C16.9346 41.3963 16.8444 41.4901 16.7776 41.6136C16.7123 41.7358 16.6796 41.8835 16.6796 42.0568ZM21.8534 42.0568V44H21.2164V39.6364H21.8449V41.2599H21.8854C21.9621 41.0838 22.0793 40.9439 22.2369 40.8402C22.3946 40.7365 22.6006 40.6847 22.8548 40.6847C23.0793 40.6847 23.2753 40.7308 23.4429 40.8232C23.6119 40.9155 23.7426 41.0533 23.835 41.2365C23.9287 41.4183 23.9756 41.6456 23.9756 41.9183V44H23.3385V41.995C23.3385 41.755 23.2767 41.5689 23.1531 41.4368C23.0296 41.3033 22.8577 41.2365 22.6375 41.2365C22.4869 41.2365 22.352 41.2685 22.2327 41.3324C22.1148 41.3963 22.0218 41.4901 21.9536 41.6136C21.8868 41.7358 21.8534 41.8835 21.8534 42.0568ZM26.2043 44.0661C25.8975 44.0661 25.6297 43.9957 25.401 43.8551C25.1723 43.7145 24.9948 43.5178 24.8683 43.2649C24.7419 43.0121 24.6787 42.7166 24.6787 42.3786C24.6787 42.0391 24.7419 41.7422 24.8683 41.4879C24.9948 41.2337 25.1723 41.0362 25.401 40.8956C25.6297 40.755 25.8975 40.6847 26.2043 40.6847C26.5111 40.6847 26.7789 40.755 27.0075 40.8956C27.2362 41.0362 27.4138 41.2337 27.5402 41.4879C27.6666 41.7422 27.7298 42.0391 27.7298 42.3786C27.7298 42.7166 27.6666 43.0121 27.5402 43.2649C27.4138 43.5178 27.2362 43.7145 27.0075 43.8551C26.7789 43.9957 26.5111 44.0661 26.2043 44.0661ZM26.2064 43.5312C26.4053 43.5312 26.57 43.4787 26.7007 43.3736C26.8314 43.2685 26.928 43.1286 26.9905 42.9538C27.0544 42.7791 27.0864 42.5866 27.0864 42.3764C27.0864 42.1676 27.0544 41.9759 26.9905 41.8011C26.928 41.625 26.8314 41.4837 26.7007 41.3771C26.57 41.2706 26.4053 41.2173 26.2064 41.2173C26.0061 41.2173 25.8399 41.2706 25.7078 41.3771C25.5771 41.4837 25.4798 41.625 25.4159 41.8011C25.3534 41.9759 25.3222 42.1676 25.3222 42.3764C25.3222 42.5866 25.3534 42.7791 25.4159 42.9538C25.4798 43.1286 25.5771 43.2685 25.7078 43.3736C25.8399 43.4787 26.0061 43.5312 26.2064 43.5312ZM28.441 44V40.7273H29.0525V41.2599H29.093C29.1611 41.0795 29.2726 40.9389 29.4275 40.8381C29.5823 40.7358 29.7677 40.6847 29.9836 40.6847C30.2023 40.6847 30.3856 40.7358 30.5333 40.8381C30.6824 40.9403 30.7925 41.081 30.8635 41.2599H30.8976C30.9758 41.0852 31.1001 40.946 31.2705 40.8423C31.441 40.7372 31.6441 40.6847 31.8799 40.6847C32.1768 40.6847 32.4189 40.7777 32.6064 40.9638C32.7954 41.1499 32.8898 41.4304 32.8898 41.8054V44H32.2528V41.8651C32.2528 41.6435 32.1924 41.483 32.0716 41.3835C31.9509 41.2841 31.8067 41.2344 31.6391 41.2344C31.4317 41.2344 31.2705 41.2983 31.1555 41.4261C31.0404 41.5526 30.9829 41.7152 30.9829 41.9141V44H30.3479V41.8246C30.3479 41.647 30.2925 41.5043 30.1817 41.3963C30.0709 41.2884 29.9268 41.2344 29.7492 41.2344C29.6285 41.2344 29.517 41.2663 29.4147 41.3303C29.3138 41.3928 29.2322 41.4801 29.1697 41.5923C29.1086 41.7045 29.078 41.8345 29.078 41.9822V44H28.441ZM35.1542 44.0661C34.8318 44.0661 34.5541 43.9972 34.3211 43.8594C34.0896 43.7202 33.9106 43.5249 33.7842 43.2734C33.6592 43.0206 33.5967 42.7244 33.5967 42.3849C33.5967 42.0497 33.6592 41.7543 33.7842 41.4986C33.9106 41.2429 34.0867 41.0433 34.3126 40.8999C34.5399 40.7564 34.8055 40.6847 35.1095 40.6847C35.2941 40.6847 35.4731 40.7152 35.6464 40.7763C35.8197 40.8374 35.9752 40.9332 36.113 41.0639C36.2508 41.1946 36.3595 41.3643 36.439 41.5732C36.5186 41.7805 36.5583 42.0327 36.5583 42.3295V42.5554H33.9568V42.0781H35.934C35.934 41.9105 35.8999 41.7621 35.8318 41.6328C35.7636 41.5021 35.6677 41.3991 35.5441 41.3239C35.422 41.2486 35.2785 41.2109 35.1137 41.2109C34.9347 41.2109 34.7785 41.255 34.645 41.343C34.5129 41.4297 34.4106 41.5433 34.3382 41.6839C34.2671 41.8232 34.2316 41.9744 34.2316 42.1378V42.5107C34.2316 42.7294 34.27 42.9155 34.3467 43.0689C34.4248 43.2223 34.5335 43.3395 34.6727 43.4205C34.8119 43.5 34.9745 43.5398 35.1606 43.5398C35.2813 43.5398 35.3914 43.5227 35.4909 43.4886C35.5903 43.4531 35.6762 43.4006 35.7487 43.331C35.8211 43.2614 35.8765 43.1754 35.9149 43.0732L36.5178 43.1818C36.4695 43.3594 36.3829 43.5149 36.2579 43.6484C36.1343 43.7805 35.9788 43.8835 35.7913 43.9574C35.6052 44.0298 35.3928 44.0661 35.1542 44.0661Z" fill="white"/>
<path d="M15 28.4167V15.5H23V28.4167M7 11.625L19 2.58334L31 11.625V25.8333C31 26.5185 30.719 27.1756 30.219 27.66C29.7189 28.1445 29.0406 28.4167 28.3333 28.4167H9.66667C8.95942 28.4167 8.28115 28.1445 7.78105 27.66C7.28095 27.1756 7 26.5185 7 25.8333V11.625Z" stroke="#F3F3F3" stroke-width="4" stroke-linecap="round" stroke-linejoin="round"/>
</svg>
